# xmcd
#
# Track frame offsets:
#	150
#	10132
#	30837
#	39707
#	54437
#	70225
#	83510
#	97915
#	113402
#	124770
#	136862
#
# Disc length: 1884 seconds
#
# Revision: 0
# Processed by: cddbd v1.5.1PL2 Copyright (c) Steve Scherf et al.
# Submitted via: dBpowerAMP V4.0
#
DISCID=78075a0b
DTITLE=Anne Murray - Both Sides Now
DYEAR=1998
DGENRE=Country
TTITLE0=It`s All Over
TTITLE1=Some Birds
TTITLE2=Paths of Victory
TTITLE3=Davids Song
TTITLE4=There Goes My Everything
TTITLE5=Buffalo in the Park
TTITLE6=What About Me
TTITLE7=Both Sides Now
TTITLE8=Last Thing on My Mind
TTITLE9=All the Time
TTITLE10=Railroad Bill
EXTD=
EXTT0=
EXTT1=
EXTT2=
EXTT3=
EXTT4=
EXTT5=
EXTT6=
EXTT7=
EXTT8=
EXTT9=
EXTT10=
PLAYORDER=
